{
    "asset" : {
        "generator" : "Khronos glTF Blender I/O v1.8.19",
        "version" : "2.0"
    },
    "scene" : 0,
    "scenes" : [
        {
            "name" : "Scene",
            "nodes" : [
                0,
                1
            ]
        }
    ],
    "nodes" : [
        {
            "name" : "NurbsPath",
            "rotation" : [
                0,
                0.7071068286895752,
                0,
                0.7071068286895752
            ],
            "translation" : [
                0,
                -1.4401224851608276,
                5.620635986328125
            ]
        },
        {
            "mesh" : 0,
            "name" : "Sunglasses Try",
            "rotation" : [
                0,
                0,
                -0.7071067690849304,
                0.7071068286895752
            ],
            "scale" : [
                0.7677687406539917,
                1,
                1.669084906578064
            ],
            "translation" : [
                9.055961608886719,
                -0.8718745708465576,
                3.9591259956359863
            ]
        }
    ],
    "materials" : [
        {
            "doubleSided" : true,
            "name" : "Material.002",
            "pbrMetallicRoughness" : {
                "baseColorFactor" : [
                    0.017542770132422447,
                    0.026440642774105072,
                    0.06680630147457123,
                    1
                ],
                "metallicFactor" : 0.8043478727340698,
                "roughnessFactor" : 0.22826087474822998
            }
        },
        {
            "doubleSided" : true,
            "name" : "Crystals",
            "pbrMetallicRoughness" : {}
        }
    ],
    "meshes" : [
        {
            "name" : "Circle.002",
            "primitives" : [
                {
                    "attributes" : {
                        "POSITION" : 0,
                        "NORMAL" : 1,
                        "TEXCOORD_0" : 2
                    },
                    "indices" : 3,
                    "material" : 0
                },
                {
                    "attributes" : {
                        "POSITION" : 4,
                        "NORMAL" : 5,
                        "TEXCOORD_0" : 6
                    },
                    "indices" : 7,
                    "material" : 1
                }
            ]
        }
    ],
    "accessors" : [
        {
            "bufferView" : 0,
            "componentType" : 5126,
            "count" : 3968,
            "max" : [
                0.5813721418380737,
                3.3984200954437256,
                2.2059667110443115
            ],
            "min" : [
                -1.4314188957214355,
                0.023174991831183434,
                -0.22540917992591858
            ],
            "type" : "VEC3"
        },
        {
            "bufferView" : 1,
            "componentType" : 5126,
            "count" : 3968,
            "type" : "VEC3"
        },
        {
            "bufferView" : 2,
            "componentType" : 5126,
            "count" : 3968,
            "type" : "VEC2"
        },
        {
            "bufferView" : 3,
            "componentType" : 5123,
            "count" : 24096,
            "type" : "SCALAR"
        },
        {
            "bufferView" : 4,
            "componentType" : 5126,
            "count" : 1684,
            "max" : [
                0.5418487191200256,
                0.09375954419374466,
                2.022052764892578
            ],
            "min" : [
                -0.7654037475585938,
                0.08729994297027588,
                -0.04149562120437622
            ],
            "type" : "VEC3"
        },
        {
            "bufferView" : 5,
            "componentType" : 5126,
            "count" : 1684,
            "type" : "VEC3"
        },
        {
            "bufferView" : 6,
            "componentType" : 5126,
            "count" : 1684,
            "type" : "VEC2"
        },
        {
            "bufferView" : 7,
            "componentType" : 5123,
            "count" : 2760,
            "type" : "SCALAR"
        }
    ],
    "bufferViews" : [
        {
            "buffer" : 0,
            "byteLength" : 47616,
            "byteOffset" : 0
        },
        {
            "buffer" : 0,
            "byteLength" : 47616,
            "byteOffset" : 47616
        },
        {
            "buffer" : 0,
            "byteLength" : 31744,
            "byteOffset" : 95232
        },
        {
            "buffer" : 0,
            "byteLength" : 48192,
            "byteOffset" : 126976
        },
        {
            "buffer" : 0,
            "byteLength" : 20208,
            "byteOffset" : 175168
        },
        {
            "buffer" : 0,
            "byteLength" : 20208,
            "byteOffset" : 195376
        },
        {
            "buffer" : 0,
            "byteLength" : 13472,
            "byteOffset" : 215584
        },
        {
            "buffer" : 0,
            "byteLength" : 5520,
            "byteOffset" : 229056
        }
    ],
    "buffers" : [
        {
            "byteLength" : 234576,
            "uri" : "data:application/octet-stream;base64,"
        }
    ]
}
